<svg width="19" height="19" viewBox="0 0 19 19" fill="none" xmlns="http://www.w3.org/2000/svg">
<path d="M16.5958 0.310059H2.18464C1.66345 0.310059 1.1636 0.517101 0.795063 0.88564C0.426525 1.25418 0.219482 1.75402 0.219482 2.27522L0.219482 16.6864C0.219482 17.2076 0.426525 17.7074 0.795063 18.0759C1.1636 18.4445 1.66345 18.6515 2.18464 18.6515H7.80376V12.4158H5.22449V9.48079H7.80376V7.24379C7.80376 4.69932 9.31857 3.29382 11.6387 3.29382C12.7498 3.29382 13.9117 3.49198 13.9117 3.49198V5.98936H12.6315C11.3701 5.98936 10.9767 6.77215 10.9767 7.575V9.48079H13.7926L13.3422 12.4158H10.9767V18.6515H16.5958C17.117 18.6515 17.6168 18.4445 17.9854 18.0759C18.3539 17.7074 18.5609 17.2076 18.5609 16.6864V2.27522C18.5609 1.75402 18.3539 1.25418 17.9854 0.88564C17.6168 0.517101 17.117 0.310059 16.5958 0.310059Z" fill="black"/>
</svg>
