<svg width="15" height="15" viewBox="0 0 15 15" fill="none" xmlns="http://www.w3.org/2000/svg">
<path d="M7.1707 3.64335C5.13773 3.64335 3.49703 5.28406 3.49703 7.31702C3.49703 9.34999 5.13773 10.9907 7.1707 10.9907C9.20366 10.9907 10.8444 9.34999 10.8444 7.31702C10.8444 5.28406 9.20366 3.64335 7.1707 3.64335ZM7.1707 9.70463C5.85599 9.70463 4.78308 8.63173 4.78308 7.31702C4.78308 6.00231 5.85599 4.92941 7.1707 4.92941C8.48541 4.92941 9.55831 6.00231 9.55831 7.31702C9.55831 8.63173 8.48541 9.70463 7.1707 9.70463ZM10.9948 2.63672C10.5202 2.63672 10.1369 3.02003 10.1369 3.49469C10.1369 3.96935 10.5202 4.35265 10.9948 4.35265C11.4695 4.35265 11.8528 3.97114 11.8528 3.49469C11.8529 3.38198 11.8308 3.27035 11.7878 3.16619C11.7447 3.06203 11.6815 2.9674 11.6018 2.8877C11.5221 2.808 11.4275 2.74481 11.3233 2.70174C11.2192 2.65868 11.1075 2.63658 10.9948 2.63672ZM14.3317 7.31702C14.3317 6.3283 14.3407 5.34854 14.2852 4.36161C14.2297 3.21527 13.9681 2.19789 13.1299 1.35963C12.2898 0.519573 11.2742 0.259855 10.1279 0.204329C9.13918 0.148804 8.15942 0.157759 7.17249 0.157759C6.18377 0.157759 5.20401 0.148804 4.21708 0.204329C3.07074 0.259855 2.05336 0.521364 1.2151 1.35963C0.375042 2.19968 0.115324 3.21527 0.0597982 4.36161C0.00427226 5.35033 0.0132281 6.33009 0.0132281 7.31702C0.0132281 8.30395 0.00427226 9.2855 0.0597982 10.2724C0.115324 11.4188 0.376833 12.4362 1.2151 13.2744C2.05515 14.1145 3.07074 14.3742 4.21708 14.4297C5.2058 14.4852 6.18556 14.4763 7.17249 14.4763C8.16121 14.4763 9.14097 14.4852 10.1279 14.4297C11.2742 14.3742 12.2916 14.1127 13.1299 13.2744C13.9699 12.4344 14.2297 11.4188 14.2852 10.2724C14.3425 9.2855 14.3317 8.30574 14.3317 7.31702ZM12.7555 11.5406C12.6248 11.8666 12.4672 12.1102 12.2146 12.3609C11.962 12.6135 11.7202 12.7711 11.3942 12.9019C10.4521 13.2762 8.21494 13.192 7.1707 13.192C6.12645 13.192 3.8875 13.2762 2.94535 12.9036C2.61936 12.7729 2.37577 12.6153 2.125 12.3627C1.87245 12.1102 1.71483 11.8684 1.58407 11.5424C1.21151 10.5984 1.2957 8.36127 1.2957 7.31702C1.2957 6.27278 1.21151 4.03383 1.58407 3.09168C1.71483 2.76569 1.87245 2.52209 2.125 2.27133C2.37756 2.02056 2.61936 1.86115 2.94535 1.7304C3.8875 1.35784 6.12645 1.44202 7.1707 1.44202C8.21494 1.44202 10.4539 1.35784 11.396 1.7304C11.722 1.86115 11.9656 2.01877 12.2164 2.27133C12.4689 2.52388 12.6266 2.76569 12.7573 3.09168C13.1299 4.03383 13.0457 6.27278 13.0457 7.31702C13.0457 8.36127 13.1299 10.5984 12.7555 11.5406Z" fill="white"/>
</svg>
