<svg width="19" height="19" viewBox="0 0 19 19" fill="none" xmlns="http://www.w3.org/2000/svg">
<path d="M16.8153 0.146362H2.40412C1.31919 0.146362 0.438965 1.02659 0.438965 2.11152V16.5227C0.438965 17.6076 1.31919 18.4878 2.40412 18.4878H16.8153C17.9002 18.4878 18.7804 17.6076 18.7804 16.5227V2.11152C18.7804 1.02659 17.9002 0.146362 16.8153 0.146362ZM14.8133 6.64776C14.8215 6.76239 14.8215 6.88112 14.8215 6.99575C14.8215 10.5453 12.1194 14.6353 7.18191 14.6353C5.65891 14.6353 4.24646 14.1931 3.05917 13.4316C3.27616 13.4562 3.48496 13.4644 3.70604 13.4644C4.96292 13.4644 6.11745 13.0386 7.03862 12.3181C5.85952 12.2935 4.86876 11.5197 4.52895 10.4552C4.94245 10.5167 5.31501 10.5167 5.74079 10.4061C4.51257 10.1564 3.5914 9.07554 3.5914 7.76953V7.73678C3.94759 7.93739 4.36518 8.06021 4.80325 8.07659C4.43496 7.83161 4.13304 7.49927 3.92444 7.10922C3.71585 6.71917 3.60706 6.28355 3.60778 5.84122C3.60778 5.34175 3.73879 4.88321 3.97215 4.48608C5.29454 6.11553 7.28017 7.17999 9.50734 7.29462C9.1266 5.47276 10.4899 3.99479 12.1276 3.99479C12.9013 3.99479 13.5973 4.31823 14.0886 4.84227C14.6945 4.72763 15.2759 4.50246 15.7918 4.1954C15.5911 4.8177 15.1695 5.34175 14.6127 5.67337C15.1531 5.61605 15.6771 5.46457 16.1602 5.25577C15.7958 5.79209 15.3373 6.26701 14.8133 6.64776Z" fill="black"/>
</svg>
